<svg id="OBJECTS" xmlns="http://www.w3.org/2000/svg" viewBox="0 0 500 500"><defs><style>.cls-1,.cls-2{fill:#a6d7ff;}.cls-2,.cls-28,.cls-6{opacity:0.5;}.cls-14,.cls-27,.cls-3{fill:#223d94;}.cls-16,.cls-17,.cls-19,.cls-22,.cls-26,.cls-4{fill:#fff;}.cls-5{fill:#dcc5f9;}.cls-6{fill:#d0b7f9;}.cls-7{opacity:0.4;}.cls-8{fill:#9ec7ef;}.cls-9{fill:#b492f4;}.cls-10{fill:#4d7ac1;}.cls-11{fill:#5ba1f4;}.cls-12{fill:#8dc6ff;}.cls-13{fill:#efc45e;}.cls-14,.cls-27{font-size:12px;}.cls-14,.cls-16,.cls-17,.cls-19,.cls-22,.cls-26,.cls-27{font-family:Montserrat-Bold, Montserrat;font-weight:700;}.cls-14{letter-spacing:0.1em;}.cls-15{fill:#7946f2;}.cls-16{font-size:12.84px;letter-spacing:0.1em;}.cls-17{font-size:11px;letter-spacing:0.09em;}.cls-18{letter-spacing:0.1em;}.cls-19,.cls-22{font-size:10px;}.cls-19{letter-spacing:0.08em;}.cls-20{letter-spacing:0.06em;}.cls-21{letter-spacing:0.1em;}.cls-22,.cls-26{letter-spacing:0.1em;}.cls-23{letter-spacing:0.09em;}.cls-24{letter-spacing:0.11em;}.cls-25{letter-spacing:0.11em;}.cls-26{font-size:15px;}.cls-27{letter-spacing:0.1em;}</style></defs><path class="cls-1" d="M451.57,103a3,3,0,1,0-3.45,2.9V159h-29V200.2h1V160h29V105.91A3,3,0,0,0,451.57,103ZM448.62,105a2,2,0,1,1,1.95-1.95A2,2,0,0,1,448.62,105Z"/><path class="cls-1" d="M404.43,128.14a3,3,0,0,0-.5,5.86v66.2h1V134a3,3,0,0,0-.5-5.86Zm0,4.91a2,2,0,1,1,1.95-2A2,2,0,0,1,404.43,133.05Z"/><path class="cls-1" d="M335.46,62.53H281.4a3,3,0,1,0,0,1h53.06v13h41.23v-1H335.46ZM278.5,65a2,2,0,1,1,1.95-2A2,2,0,0,1,278.5,65Z"/><path class="cls-1" d="M325.23,84.72a3,3,0,1,0,2.9,3.46h46.21v-1H328.13A3,3,0,0,0,325.23,84.72Zm0,4.91a2,2,0,1,1,1.95-1.95A2,2,0,0,1,325.23,89.63Z"/><path class="cls-1" d="M258.88,162.9a3,3,0,0,0,.5-5.86v-46.2h-1V157a3,3,0,0,0,.5,5.86Zm0-4.91a2,2,0,1,1-1.95,2A2,2,0,0,1,258.88,158Z"/><path class="cls-1" d="M268.84,147.2V101h-1v46.2a3,3,0,1,0,1,0Zm-.5,4.86a2,2,0,1,1,2-1.95A2,2,0,0,1,268.34,152.06Z"/><path class="cls-1" d="M82.91,328.08v-1H36.7a3,3,0,1,0,0,1ZM33.8,329.54a2,2,0,1,1,2-2A2,2,0,0,1,33.8,329.54Z"/><path class="cls-1" d="M43.64,334.08a3,3,0,1,0,2.9,3.46H92.75v-1H46.54A3,3,0,0,0,43.64,334.08Zm0,4.91a2,2,0,1,1,2-1.95A2,2,0,0,1,43.64,339Z"/><path class="cls-1" d="M262.4,430.85a3,3,0,0,0-2.9,2.45H206.44v-29H165.21v1h40.23v29H259.5a2.95,2.95,0,1,0,2.9-3.45Zm0,4.9a1.95,1.95,0,1,1,2-1.95A2,2,0,0,1,262.4,435.75Z"/><path class="cls-1" d="M234.32,392.56a3,3,0,1,0-2.91-3.45h-66.2v1h66.2A3,3,0,0,0,234.32,392.56Zm0-4.91a2,2,0,1,1-2,2A2,2,0,0,1,234.32,387.65Z"/><path class="cls-1" d="M64.71,453.55h-13v24.07a3,3,0,1,0,1,0V454.55h13V413.33h-1Zm-10.55,27a2,2,0,1,1-1.95-2A2,2,0,0,1,54.16,480.52Z"/><path class="cls-1" d="M77.36,460.88v-46.2h-1v46.2a3,3,0,1,0,1,0Zm-.5,4.85a2,2,0,1,1,2-2A1.95,1.95,0,0,1,76.86,465.73Z"/><path class="cls-1" d="M393.36,46.45h13V22.38a2.93,2.93,0,1,0-1,0V45.45h-13V86.68h1Zm10.54-27a2,2,0,1,1,2,2A2,2,0,0,1,403.9,19.48Z"/><path class="cls-1" d="M380.71,39.12v46.2h1V39.12a3,3,0,1,0-1,0Zm.5-4.85a1.95,1.95,0,1,1-1.95,1.95A2,2,0,0,1,381.21,34.27Z"/><path class="cls-2" d="M448.62,375.21a2.59,2.59,0,0,1-2.6,2.6H34.21a2.59,2.59,0,0,1-2.59-2.6h0a2.59,2.59,0,0,1,2.59-2.59H446a2.59,2.59,0,0,1,2.6,2.59Z"/><rect class="cls-3" x="78.45" y="119.53" width="145.34" height="253.09" rx="14.21"/><path class="cls-4" d="M160.59,356.82a9.48,9.48,0,1,1-9.47-9.47A9.47,9.47,0,0,1,160.59,356.82Z"/><path class="cls-4" d="M169.77,135.62a2.07,2.07,0,0,1-2.07,2.07H134.53a2.07,2.07,0,0,1-2.07-2.07h0a2.07,2.07,0,0,1,2.07-2.07H167.7a2.07,2.07,0,0,1,2.07,2.07Z"/><path class="cls-4" d="M153,127.65a1.88,1.88,0,1,1-1.87-1.87A1.88,1.88,0,0,1,153,127.65Z"/><rect class="cls-5" x="84.82" y="142.81" width="132.6" height="199.5"/><polygon class="cls-6" points="84.82 342.31 217.41 142.81 217.41 342.31 84.82 342.31"/><rect class="cls-4" x="96.22" y="153.17" width="109.8" height="48.76"/><g class="cls-7"><polygon class="cls-8" points="142.12 164.95 158.54 186.63 167.54 174.74 181.37 193 163.37 193 153.71 193 120.86 193 142.12 164.95"/><path class="cls-8" d="M156.19,169.84a3.37,3.37,0,1,0,3.37-3.38A3.37,3.37,0,0,0,156.19,169.84Z"/></g><rect class="cls-9" x="96.22" y="218.67" width="49.6" height="2.21"/><rect class="cls-9" x="96.22" y="224.09" width="49.6" height="2.21"/><rect class="cls-9" x="96.22" y="229.51" width="49.6" height="2.21"/><rect class="cls-9" x="96.22" y="234.93" width="49.6" height="2.21"/><rect class="cls-4" x="96.22" y="208.97" width="49.6" height="4.88"/><rect class="cls-4" x="156.42" y="208.97" width="49.6" height="4.88"/><rect class="cls-9" x="156.42" y="218.67" width="49.6" height="2.21"/><rect class="cls-9" x="156.42" y="224.09" width="49.6" height="2.21"/><rect class="cls-9" x="156.42" y="229.51" width="49.6" height="2.21"/><rect class="cls-9" x="156.42" y="234.93" width="49.6" height="2.21"/><rect class="cls-9" x="96.22" y="253.35" width="49.6" height="2.21"/><rect class="cls-9" x="96.22" y="258.77" width="49.6" height="2.21"/><rect class="cls-9" x="96.22" y="264.18" width="49.6" height="2.21"/><rect class="cls-9" x="96.22" y="269.6" width="49.6" height="2.21"/><rect class="cls-4" x="96.22" y="243.64" width="49.6" height="4.88"/><rect class="cls-4" x="156.42" y="243.64" width="49.6" height="4.88"/><rect class="cls-9" x="156.42" y="253.35" width="49.6" height="2.21"/><rect class="cls-9" x="156.42" y="258.77" width="49.6" height="2.21"/><rect class="cls-9" x="156.42" y="264.18" width="49.6" height="2.21"/><rect class="cls-9" x="156.42" y="269.6" width="49.6" height="2.21"/><rect class="cls-4" x="96.22" y="281.75" width="50.56" height="50.56"/><g class="cls-7"><polygon class="cls-8" points="115.65 298.85 125.44 311.77 130.81 304.69 139.06 315.57 128.32 315.57 122.56 315.57 102.97 315.57 115.65 298.85"/><path class="cls-8" d="M124,301.76a2,2,0,1,0,2-2A2,2,0,0,0,124,301.76Z"/></g><rect class="cls-4" x="156.42" y="281.75" width="49.6" height="4.88"/><rect class="cls-9" x="156.42" y="291.45" width="49.6" height="2.21"/><rect class="cls-9" x="156.42" y="296.87" width="49.6" height="2.21"/><rect class="cls-9" x="156.42" y="302.29" width="49.6" height="2.21"/><rect class="cls-9" x="156.42" y="307.71" width="49.6" height="2.21"/><rect class="cls-9" x="156.42" y="313.12" width="49.6" height="2.21"/><rect class="cls-9" x="156.42" y="318.54" width="49.6" height="2.21"/><rect class="cls-9" x="156.42" y="323.96" width="49.6" height="2.21"/><rect class="cls-9" x="156.42" y="329.38" width="49.6" height="2.21"/><rect class="cls-10" x="185.49" y="217.53" width="208.04" height="147.31" rx="7.9"/><rect class="cls-3" x="193.09" y="227.13" width="192.83" height="128.1"/><path class="cls-11" d="M169.7,355.27v8.25a9.13,9.13,0,0,0,9.1,9.1H400.22a9.13,9.13,0,0,0,9.1-9.1v-8.25Z"/><path class="cls-12" d="M249,355.27v2.79a3.09,3.09,0,0,0,3.08,3.08H327a3.09,3.09,0,0,0,3.08-3.08v-2.79Z"/><rect class="cls-8" x="201.22" y="235.74" width="40" height="3"/><rect class="cls-5" x="255.88" y="235.74" width="88.67" height="3"/><rect class="cls-8" x="201.22" y="245.74" width="27.63" height="3"/><rect class="cls-5" x="238.98" y="245.74" width="61.24" height="3"/><rect class="cls-8" x="201.22" y="255.74" width="30.23" height="3"/><rect class="cls-5" x="242.54" y="255.74" width="67.02" height="3"/><rect class="cls-8" x="201.22" y="265.74" width="18.12" height="3"/><rect class="cls-5" x="225.98" y="265.74" width="110.9" height="3"/><rect class="cls-8" x="201.22" y="275.74" width="40" height="3"/><rect class="cls-5" x="255.88" y="275.74" width="88.67" height="3"/><rect class="cls-8" x="201.22" y="285.74" width="27.63" height="3"/><rect class="cls-5" x="238.98" y="285.74" width="61.24" height="3"/><rect class="cls-8" x="201.22" y="295.74" width="34.42" height="3"/><rect class="cls-5" x="248.26" y="295.74" width="76.29" height="3"/><rect class="cls-8" x="201.22" y="305.74" width="18.12" height="3"/><rect class="cls-5" x="225.98" y="305.74" width="110.9" height="3"/><rect class="cls-8" x="201.22" y="315.74" width="43.44" height="3"/><rect class="cls-5" x="260.59" y="315.74" width="96.3" height="3"/><rect class="cls-8" x="201.22" y="325.74" width="37.12" height="3"/><rect class="cls-5" x="251.94" y="325.74" width="82.28" height="3"/><rect class="cls-8" x="201.22" y="335.74" width="32.83" height="3"/><rect class="cls-5" x="246.09" y="335.74" width="72.78" height="3"/><rect class="cls-8" x="201.22" y="345.74" width="19.68" height="3"/><rect class="cls-5" x="228.11" y="345.74" width="120.45" height="3"/><path class="cls-1" d="M431.83,308.76V298H426a32.73,32.73,0,0,0-5.72-13.82l4.11-4.1-7.59-7.59-4.11,4.11a32.78,32.78,0,0,0-13.81-5.73v-5.81H388.17v5.81a32.82,32.82,0,0,0-13.82,5.73l-4.11-4.11-7.58,7.59,4.1,4.1A32.86,32.86,0,0,0,361,298h-5.81v10.73H361a32.76,32.76,0,0,0,5.72,13.81l-4.1,4.11,7.58,7.59,4.11-4.11a32.82,32.82,0,0,0,13.82,5.73v5.81H398.9v-5.81a32.78,32.78,0,0,0,13.81-5.73l4.11,4.11,7.59-7.59-4.11-4.11A32.64,32.64,0,0,0,426,308.76Zm-38.3,16.71a22.08,22.08,0,1,1,22.08-22.08A22.07,22.07,0,0,1,393.53,325.47Z"/><path class="cls-1" d="M274.12,224.7V210.36h-7.76a43.93,43.93,0,0,0-7.65-18.46l5.49-5.49-10.14-10.14-5.49,5.49a44,44,0,0,0-18.46-7.65v-7.76H215.77v7.76a43.93,43.93,0,0,0-18.46,7.65l-5.49-5.49-10.14,10.14,5.49,5.49a43.8,43.8,0,0,0-7.65,18.46h-7.76V224.7h7.76a43.8,43.8,0,0,0,7.65,18.46l-5.49,5.49,10.14,10.14,5.49-5.49A43.93,43.93,0,0,0,215.77,261v7.76h14.34V261a44,44,0,0,0,18.46-7.65l5.49,5.49,10.14-10.14-5.5-5.49a43.82,43.82,0,0,0,7.66-18.46ZM222.94,247a29.5,29.5,0,1,1,29.5-29.5A29.5,29.5,0,0,1,222.94,247Z"/><path class="cls-1" d="M380,151.43V142h-5.12a28.9,28.9,0,0,0-5.06-12.19l3.63-3.63-6.7-6.7-3.62,3.63A28.81,28.81,0,0,0,351,118v-5.13H341.5V118a28.85,28.85,0,0,0-12.2,5l-3.62-3.63-6.7,6.7,3.63,3.63A28.9,28.9,0,0,0,317.55,142h-5.12v9.47h5.12a29,29,0,0,0,5.06,12.19L319,167.25l6.7,6.69,3.62-3.63a29,29,0,0,0,12.2,5.06v5.12H351v-5.12a29,29,0,0,0,12.19-5.06l3.62,3.63,6.7-6.69-3.63-3.63a29,29,0,0,0,5.06-12.19Zm-33.8,14.74a19.48,19.48,0,1,1,19.48-19.48A19.48,19.48,0,0,1,346.23,166.17Z"/><path class="cls-13" d="M352.45,205.62H289.61V142.78h62.84Zm-61.84-1h60.84V143.78H290.61Z"/><rect class="cls-13" x="295.02" y="148.2" width="52" height="52"/><text class="cls-14" transform="translate(301.32 177.7)">HTML</text><path class="cls-15" d="M284.35,134.7H241.42V91.77h42.93Zm-41.93-1h40.93V92.77H242.42Z"/><rect class="cls-15" x="245.26" y="95.61" width="35.26" height="35.26"/><text class="cls-16" transform="translate(254.48 116.98)">JS</text><path class="cls-11" d="M410.49,104.39H367.57V61.46h42.92Zm-41.92-1h40.92V62.46H368.57Z"/><rect class="cls-11" x="371.4" y="65.3" width="35.26" height="35.26"/><text class="cls-17" transform="translate(376.72 86.68)">C<tspan class="cls-18" x="9.1" y="0">SS</tspan></text><path class="cls-15" d="M430,237.65H378.87V186.54H430Zm-50.11-1H429V187.54H379.87Z"/><rect class="cls-15" x="383.36" y="191.03" width="42.14" height="42.14"/><text class="cls-19" transform="translate(389.05 216.58)">J<tspan class="cls-20" x="6.26" y="0">AV</tspan><tspan class="cls-21" x="22.62" y="0">A</tspan></text><path class="cls-11" d="M113.16,362.8H62.05V311.68h51.11Zm-50.11-1h49.11V312.68H63.05Z"/><rect class="cls-11" x="66.53" y="316.17" width="42.14" height="42.14"/><text class="cls-22" transform="translate(70.32 341.72)">R<tspan class="cls-23" x="8.35" y="0">e</tspan><tspan class="cls-24" x="15.51" y="0">a</tspan><tspan class="cls-25" x="22.74" y="0">c</tspan><tspan x="29.73" y="0">t</tspan></text><path class="cls-15" d="M182.54,422.11H119.7V359.27h62.84Zm-61.84-1h60.84V360.27H120.7Z"/><rect class="cls-15" x="125.12" y="364.69" width="52" height="52"/><text class="cls-26" transform="translate(133.97 395.19)">SQL</text><path class="cls-13" d="M91.33,438.15H48.4V395.23H91.33Zm-41.93-1H90.33V396.23H49.4Z"/><rect class="cls-13" x="52.24" y="399.06" width="35.26" height="35.26"/><text class="cls-27" transform="translate(58.93 420.44)">&lt;/&gt;</text><path class="cls-1" d="M140.07,90.67l-8.56,3.13,8.56,3.11v3.21l-12.23-4.65V92.13l12.23-4.65Z"/><path class="cls-1" d="M151.84,81.16h3.57l-8.48,24.2h-3.57Z"/><path class="cls-1" d="M170.67,92.13v3.34l-12.23,4.65V96.91L167,93.8l-8.56-3.13V87.48Z"/><polygon class="cls-1" points="221.09 60.47 217.34 60.47 217.34 56.72 215.34 56.72 215.34 60.47 211.59 60.47 211.59 62.47 215.34 62.47 215.34 66.22 217.34 66.22 217.34 62.47 221.09 62.47 221.09 60.47"/><polygon class="cls-1" points="430.25 128.53 426.5 128.53 426.5 124.78 424.5 124.78 424.5 128.53 420.75 128.53 420.75 130.53 424.5 130.53 424.5 134.28 426.5 134.28 426.5 130.53 430.25 130.53 430.25 128.53"/><polygon class="cls-1" points="461.07 219.89 457.32 219.89 457.32 216.14 455.32 216.14 455.32 219.89 451.57 219.89 451.57 221.89 455.32 221.89 455.32 225.64 457.32 225.64 457.32 221.89 461.07 221.89 461.07 219.89"/><polygon class="cls-1" points="81.61 55.72 77.86 55.72 77.86 51.97 75.86 51.97 75.86 55.72 72.11 55.72 72.11 57.72 75.86 57.72 75.86 61.47 77.86 61.47 77.86 57.72 81.61 57.72 81.61 55.72"/><polygon class="cls-1" points="61.63 161.9 57.88 161.9 57.88 158.15 55.88 158.15 55.88 161.9 52.13 161.9 52.13 163.9 55.88 163.9 55.88 167.65 57.88 167.65 57.88 163.9 61.63 163.9 61.63 161.9"/><polygon class="cls-1" points="456.32 266.24 452.57 266.24 452.57 262.49 450.57 262.49 450.57 266.24 446.82 266.24 446.82 268.24 450.57 268.24 450.57 271.99 452.57 271.99 452.57 268.24 456.32 268.24 456.32 266.24"/><polygon class="cls-1" points="54.01 257.77 50.26 257.77 50.26 254.02 48.26 254.02 48.26 257.77 44.51 257.77 44.51 259.77 48.26 259.77 48.26 263.52 50.26 263.52 50.26 259.77 54.01 259.77 54.01 257.77"/><polygon class="cls-1" points="260.63 403.3 256.88 403.3 256.88 399.55 254.88 399.55 254.88 403.3 251.13 403.3 251.13 405.3 254.88 405.3 254.88 409.05 256.88 409.05 256.88 405.3 260.63 405.3 260.63 403.3"/><polygon class="cls-1" points="361.64 437.15 357.89 437.15 357.89 433.4 355.89 433.4 355.89 437.15 352.14 437.15 352.14 439.15 355.89 439.15 355.89 442.9 357.89 442.9 357.89 439.15 361.64 439.15 361.64 437.15"/><g class="cls-28"><path class="cls-11" d="M307.86,434.43a21.11,21.11,0,1,1,21.1-21.1A21.13,21.13,0,0,1,307.86,434.43Zm0-41.21A20.11,20.11,0,1,0,328,413.33,20.13,20.13,0,0,0,307.86,393.22Z"/><path class="cls-11" d="M456.32,346.92a12.84,12.84,0,1,1,12.83-12.84A12.85,12.85,0,0,1,456.32,346.92Zm0-24.67a11.84,11.84,0,1,0,11.83,11.83A11.85,11.85,0,0,0,456.32,322.25Z"/><path class="cls-11" d="M419.12,419.64a10.59,10.59,0,1,1,10.59-10.59A10.61,10.61,0,0,1,419.12,419.64Zm0-20.18a9.59,9.59,0,1,0,9.59,9.59A9.6,9.6,0,0,0,419.12,399.46Z"/><path class="cls-11" d="M62.05,116.71A21.11,21.11,0,1,1,83.15,95.6,21.13,21.13,0,0,1,62.05,116.71Zm0-41.21a20.11,20.11,0,1,0,20.1,20.1A20.13,20.13,0,0,0,62.05,75.5Z"/><path class="cls-11" d="M156.42,64.44A12.84,12.84,0,1,1,169.25,51.6,12.85,12.85,0,0,1,156.42,64.44Zm0-24.67A11.84,11.84,0,1,0,168.25,51.6,11.85,11.85,0,0,0,156.42,39.77Z"/><path class="cls-11" d="M54,229a9.85,9.85,0,1,1,9.85-9.85A9.86,9.86,0,0,1,54,229Zm0-18.69a8.85,8.85,0,1,0,8.85,8.84A8.86,8.86,0,0,0,54,210.28Z"/></g></svg>