<svg id="圖層_1" data-name="圖層 1" xmlns="http://www.w3.org/2000/svg" viewBox="0 0 500 300"><defs><style>.cls-1{fill:#a9d1db;}.cls-2{fill:#fff;}.cls-3{fill:#d1e2ea;}.cls-4{fill:none;stroke:#fff;stroke-miterlimit:10;stroke-width:2px;stroke-dasharray:5;}</style></defs><path class="cls-1" d="M310.41,120.11l18.1,55.35a5.87,5.87,0,0,0,9.32,2.7l54-44.61s-57.43-22.4-57.43-21.18S310.41,120.11,310.41,120.11Z"/><path class="cls-2" d="M453,13.73c-35.29,14-149.21,60.64-192.33,78.33a6.59,6.59,0,0,0,.51,12.37l49.23,15.68,18,55.17a6,6,0,0,0,4.6,4c1.66.31,4.11-44.68,4.11-44.68s51.75,38.38,76.3,56.5a10.23,10.23,0,0,0,16.12-6.27L461.42,20.73A6.24,6.24,0,0,0,453,13.73Z"/><path class="cls-3" d="M333.05,179.32c1.66.31,4.11-44.68,4.11-44.68l85-79.87a.66.66,0,0,0-.79-1l-111,66.38,18,55.17A6,6,0,0,0,333.05,179.32Z"/><path class="cls-4" d="M38.46,287.67c58.39-.18,136-33.11,151.61-96.35,6.28-25.51.69-52.86-19.53-71.48-25.56-23.53-53.62-2-46.72,30.82,11.35,54,77.25,93.92,127.34,94.49,29,.32,56.12-13.56,66.53-41.93"/></svg>