<svg id="圖層_1" data-name="圖層 1" xmlns="http://www.w3.org/2000/svg" viewBox="0 0 500 500"><defs><style>.cls-1{fill:#231815;stroke:#ff7c36;stroke-miterlimit:10;stroke-width:7px;}.cls-2{fill:#4c1e4f;}</style></defs><path class="cls-1" d="M238.08,147.49,186.49,297.72H289.68ZM189.25,295.75l48.83-142.19,48.84,142.19ZM134.84,455h.4l28.43-82.5H312.89L341.32,455H476L324.49,45H175.14l-.23.64L24.41,454,24,455Zm313.93-2-150-406.14h24.36l150,406.14ZM315,372.54h24.38l27.75,80.53H342.73Zm-152.71-2h-.4l-28.43,82.5H26.86l.38-1L176.88,46.93H296.66l150,406.14H369.19l-28.43-82.5H162.27Z"/><path class="cls-2" d="M238.08,147.49,186.49,297.72H289.68ZM189.25,295.75l48.83-142.19,48.84,142.19ZM134.84,455h.4l28.43-82.5H312.89L341.32,455H476L324.49,45H175.14l-.23.64L24.41,454,24,455Zm313.93-2-150-406.14h24.36l150,406.14ZM315,372.54h24.38l27.75,80.53H342.73Zm-152.71-2h-.4l-28.43,82.5H26.86l.38-1L176.88,46.93H296.66l150,406.14H369.19l-28.43-82.5H162.27Z"/></svg>